<?xml version="1.0" standalone="no"?>
<!DOCTYPE svg PUBLIC "-//W3C//DTD SVG 20010904//EN"
 "http://www.w3.org/TR/2001/REC-SVG-20010904/DTD/svg10.dtd">
<svg version="1.0" xmlns="http://www.w3.org/2000/svg"
 width="500.000000pt" height="500.000000pt" viewBox="0 0 500.000000 500.000000"
 preserveAspectRatio="xMidYMid meet">
<metadata>
Created by potrace 1.14, written by Peter Selinger 2001-2017
</metadata>
<g transform="translate(0.000000,500.000000) scale(0.100000,-0.100000)"
fill="#000000" stroke="none">
<path d="M2475 4758 c-5 -14 -109 -388 -154 -551 -29 -109 -27 -117 36 -117
36 0 42 7 63 70 l15 45 93 3 c69 2 93 -1 96 -10 3 -7 10 -33 18 -58 12 -43 15
-45 54 -48 25 -2 45 2 52 10 8 10 -8 84 -64 298 -109 411 -89 364 -152 368
-36 2 -54 -1 -57 -10z m90 -325 c9 -32 18 -64 20 -70 10 -30 -7 -43 -56 -43
-63 0 -67 10 -40 100 17 55 26 70 41 70 15 0 23 -13 35 -57z"/>
<path d="M1936 4689 c-71 -21 -135 -44 -142 -49 -10 -9 -9 -23 6 -73 10 -34
47 -165 84 -292 76 -265 80 -275 102 -275 9 0 71 16 138 36 67 19 129 38 140
41 15 4 17 12 13 45 -8 63 -15 65 -127 33 -55 -16 -103 -25 -107 -22 -11 11
-69 213 -65 225 2 6 35 21 73 32 73 22 78 29 63 87 -9 32 -25 34 -99 11 -37
-11 -71 -16 -75 -11 -17 19 -30 77 -20 87 6 6 52 25 103 41 l92 30 -3 34 c-3
37 -17 62 -36 60 -6 -1 -69 -18 -140 -40z"/>
<path d="M2970 4698 c-30 -68 -207 -594 -203 -604 7 -18 75 -35 89 -23 7 6 40
93 74 195 34 101 66 184 71 184 5 0 9 -6 9 -13 0 -7 4 -48 9 -92 5 -44 15
-138 22 -209 9 -99 16 -133 30 -147 21 -21 87 -36 99 -23 8 9 210 600 210 616
0 13 -66 39 -83 32 -8 -3 -42 -85 -77 -187 -34 -100 -66 -186 -71 -191 -4 -5
-10 2 -13 15 -5 21 -46 411 -46 431 0 10 -67 38 -91 38 -11 0 -24 -10 -29 -22z"/>
<path d="M1543 4526 l-27 -24 85 -143 c191 -321 195 -329 167 -357 -7 -7 -28
-12 -48 -12 -27 0 -43 -7 -63 -28 -34 -36 -34 -48 3 -67 70 -36 158 -9 208 65
19 29 23 44 19 85 -3 43 -24 83 -141 278 -147 244 -151 248 -203 203z"/>
<path d="M3814 4192 c-34 -31 -141 -131 -238 -221 -97 -90 -176 -169 -176
-175 0 -13 51 -66 64 -66 4 0 36 25 71 55 34 30 69 55 77 55 14 0 48 -30 48
-43 0 -3 -18 -43 -40 -88 -22 -45 -40 -90 -40 -99 0 -21 41 -60 63 -60 11 0
32 30 62 90 46 91 64 110 110 110 36 0 118 44 160 85 73 73 100 180 63 250
-21 40 -137 165 -151 165 -7 -1 -40 -27 -73 -58z m110 -123 c41 -48 31 -113
-26 -166 -25 -24 -88 -53 -112 -53 -21 0 -86 59 -86 77 0 20 160 172 182 173
9 0 28 -14 42 -31z"/>
<path d="M3371 4214 c-12 -15 -21 -33 -21 -40 0 -15 142 -114 164 -114 15 0
56 50 56 69 0 13 -144 111 -164 111 -8 0 -24 -12 -35 -26z"/>
<path d="M887 3968 c-94 -128 -126 -179 -121 -191 3 -7 53 -46 112 -88 59 -42
174 -124 255 -182 82 -59 156 -107 166 -107 14 0 173 208 188 246 2 7 -12 24
-31 39 -44 33 -46 32 -119 -72 -28 -40 -54 -73 -57 -73 -10 0 -174 116 -188
133 -10 11 -4 26 28 73 22 32 40 64 40 71 0 6 -17 22 -37 34 l-37 23 -25 -33
c-14 -19 -38 -48 -52 -64 l-27 -31 -36 24 c-20 14 -36 31 -36 37 0 7 25 47 55
89 30 42 55 83 55 90 0 14 -51 54 -69 54 -6 0 -35 -33 -64 -72z"/>
<path d="M3965 3673 c-154 -79 -286 -151 -294 -158 -11 -11 -2 -35 58 -149 40
-74 76 -138 81 -141 12 -8 70 22 76 39 3 8 -13 51 -36 96 -23 45 -40 89 -38
97 3 17 173 113 200 113 12 0 28 -21 48 -59 16 -33 35 -61 42 -64 22 -7 78 25
78 45 0 10 -14 44 -32 75 l-32 56 30 23 c53 43 69 34 119 -66 25 -49 51 -90
58 -90 17 0 77 38 77 49 0 14 -129 258 -143 269 -9 8 -89 -29 -292 -135z"/>
<path d="M639 3563 c-22 -60 -18 -63 178 -133 100 -36 185 -68 188 -72 8 -8
-18 -11 -264 -39 -101 -11 -187 -22 -191 -24 -11 -7 -33 -83 -28 -97 3 -7 61
-33 129 -56 313 -110 468 -162 483 -162 10 0 23 15 32 36 13 31 13 39 2 50
-11 10 -207 84 -330 123 -39 13 -51 31 -20 31 9 1 109 11 221 24 223 25 224
25 237 93 4 19 3 38 -2 43 -11 10 -594 210 -612 210 -7 0 -17 -12 -23 -27z"/>
<path d="M4165 3271 c-355 -53 -325 -45 -325 -89 0 -67 0 -67 175 -43 138 19
180 21 164 7 -2 -2 -71 -40 -154 -86 -82 -45 -152 -84 -154 -85 -1 -2 0 -26 4
-54 4 -32 12 -52 23 -56 9 -3 80 -20 157 -36 162 -34 175 -38 175 -48 0 -4
-71 -18 -157 -31 l-158 -25 -3 -36 c-5 -61 10 -68 120 -53 322 46 516 76 536
84 20 9 22 14 16 52 -4 24 -10 47 -14 51 -4 5 -113 31 -241 58 -297 62 -279
58 -279 67 0 4 100 61 221 126 122 66 227 125 233 132 8 8 11 28 7 56 l-6 43
-45 1 c-25 1 -157 -15 -295 -35z"/>
<path d="M474 2956 c-3 -8 -4 -29 -2 -48 3 -33 4 -34 141 -87 75 -30 137 -58
137 -62 0 -4 -53 -25 -117 -48 -161 -56 -167 -59 -171 -102 -6 -67 4 -66 247
16 218 73 225 75 322 75 96 0 100 1 110 24 7 14 9 36 5 49 -6 24 -10 25 -113
32 -82 5 -125 14 -178 35 -169 67 -343 130 -359 130 -9 0 -19 -6 -22 -14z"/>
<path d="M980 2493 c-402 -147 -475 -175 -481 -185 -8 -12 8 -67 25 -85 9 -10
79 -13 274 -14 206 -1 262 -4 260 -14 -2 -9 -296 -260 -387 -331 -12 -10 -12
-18 -1 -59 7 -26 18 -49 25 -51 15 -6 605 203 622 220 4 3 1 24 -6 46 -8 28
-17 40 -31 40 -10 0 -81 -22 -157 -50 -76 -27 -141 -46 -146 -41 -4 4 53 58
128 120 78 65 135 120 135 129 -1 9 -9 33 -18 52 l-17 35 -178 3 c-131 2 -177
6 -175 14 3 7 70 36 151 66 157 58 161 61 135 117 -15 33 -39 31 -158 -12z"/>
<path d="M4410 2470 c-30 -4 -122 -15 -205 -25 -147 -17 -151 -17 -235 3 -57
14 -89 17 -97 11 -17 -15 -27 -68 -14 -83 6 -7 50 -21 98 -31 49 -10 92 -21
97 -26 5 -4 16 1 25 12 21 27 55 14 99 -36 l32 -36 -6 40 c-14 91 56 150 82
69 7 -22 -7 -22 171 3 l83 11 10 39 c6 22 8 44 5 49 -7 11 -64 11 -145 0z"/>
<path d="M4262 2275 c-12 -25 -12 -25 13 -9 14 9 22 20 19 25 -9 15 -20 10
-32 -16z"/>
<path d="M4315 2215 c-50 -12 -50 -12 -18 -19 36 -8 83 -48 83 -70 0 -8 16
-24 36 -37 42 -26 58 -16 69 42 7 35 5 37 -44 68 -56 34 -55 34 -126 16z"/>
<path d="M1255 1902 c-45 -28 -93 -87 -104 -129 -5 -21 -13 -74 -16 -118 -9
-105 -20 -140 -55 -165 -34 -24 -53 -25 -74 -4 -22 21 -20 57 4 79 27 24 25
34 -10 72 -30 31 -32 32 -55 17 -25 -16 -65 -88 -65 -117 0 -31 30 -91 62
-124 60 -62 132 -67 207 -13 61 44 81 92 91 220 10 122 25 162 71 185 27 15
33 15 53 1 37 -24 38 -52 5 -90 -16 -19 -29 -37 -29 -41 0 -18 43 -65 60 -65
24 0 75 59 90 105 17 51 -7 111 -65 164 -39 36 -50 41 -92 41 -29 0 -60 -7
-78 -18z"/>
<path d="M1546 1691 c-6 -9 -126 -350 -184 -525 l-37 -108 35 -29 c19 -16 41
-29 50 -29 8 1 47 29 86 63 39 34 151 131 248 216 191 166 197 176 139 212
l-32 20 -39 -35 c-22 -20 -46 -36 -53 -36 -8 0 -45 20 -82 45 -72 49 -76 57
-53 122 15 44 13 51 -24 76 -27 19 -46 22 -54 8z m77 -296 c20 -14 37 -32 37
-39 0 -16 -106 -106 -125 -106 -23 0 -25 28 -6 82 37 104 35 102 94 63z"/>
<path d="M1980 1399 c-19 -12 -40 -29 -47 -38 -7 -9 -51 -132 -99 -275 -95
-286 -95 -287 -19 -290 l36 -1 49 145 c27 80 62 190 79 245 35 115 38 120 68
129 18 6 29 0 51 -23 21 -23 38 -32 68 -34 37 -2 39 0 42 28 4 39 -32 92 -78
116 -46 25 -107 24 -150 -2z"/>
</g>
</svg>
